<?xml version="1.0" standalone="no"?>
<!DOCTYPE svg PUBLIC "-//W3C//DTD SVG 20010904//EN"
 "http://www.w3.org/TR/2001/REC-SVG-20010904/DTD/svg10.dtd">
<svg version="1.0" xmlns="http://www.w3.org/2000/svg"
 width="492.000000pt" height="544.000000pt" viewBox="0 0 492.000000 544.000000"
 preserveAspectRatio="xMidYMid meet">
<metadata>
Created by potrace 1.15, written by Peter Selinger 2001-2017
</metadata>
<g transform="translate(0.000000,544.000000) scale(0.100000,-0.100000)"
fill="#000000" stroke="none">
<path d="M1463 5427 c-7 -7 -18 -17 -26 -24 -11 -8 -14 -33 -12 -96 2 -47 6
-90 9 -96 4 -6 4 -11 0 -11 -4 0 5 -9 20 -21 32 -25 33 -36 4 -45 -13 -4 -30
-15 -39 -25 -9 -11 -23 -19 -32 -19 -11 0 -17 -15 -23 -56 -10 -82 6 -95 119
-97 48 -1 87 -4 88 -7 0 -3 2 -12 4 -20 14 -63 13 -70 -3 -71 -9 0 -52 -1 -94
-1 -61 1 -81 -3 -98 -18 -13 -11 -31 -22 -41 -25 -11 -4 -19 -13 -19 -20 0 -8
-9 -19 -19 -25 -11 -5 -21 -22 -23 -37 -2 -20 -9 -29 -25 -31 -13 -2 -23 -8
-23 -13 0 -6 -9 -7 -20 -4 -12 4 -31 0 -43 -7 -12 -8 -41 -20 -64 -28 -24 -7
-43 -17 -43 -22 0 -5 -4 -6 -10 -3 -5 3 -10 1 -10 -4 0 -6 -7 -11 -15 -11 -17
0 -59 -24 -89 -52 -11 -10 -28 -18 -38 -18 -11 0 -16 -4 -13 -10 3 -5 -3 -10
-14 -10 -10 0 -30 -13 -44 -29 -14 -17 -28 -27 -31 -24 -3 4 -6 0 -6 -7 0 -7
-3 -10 -7 -7 -3 4 -22 -10 -42 -30 -20 -21 -42 -38 -49 -39 -19 -3 -52 -35
-52 -49 0 -7 -7 -15 -15 -18 -8 -4 -27 -25 -42 -49 -15 -24 -31 -45 -36 -46
-4 -2 -5 -8 -1 -13 3 -5 1 -9 -5 -9 -5 0 -13 -10 -17 -22 -4 -13 -18 -37 -32
-54 -14 -17 -24 -35 -23 -38 1 -4 -4 -13 -11 -21 -34 -38 -40 -48 -42 -70 0
-13 -4 -21 -8 -18 -5 2 -8 -5 -8 -16 0 -12 -4 -21 -10 -21 -14 0 -52 -79 -46
-96 3 -7 1 -16 -3 -19 -5 -2 -14 -26 -21 -52 -12 -48 -15 -61 -24 -120 -2 -17
-11 -42 -20 -55 -8 -13 -15 -32 -15 -43 0 -11 -4 -38 -9 -60 -6 -22 -9 -64 -7
-93 1 -29 -2 -55 -7 -58 -5 -4 -5 -10 0 -17 5 -7 6 -38 3 -70 -4 -32 -5 -60
-3 -62 9 -9 9 -75 0 -75 -5 0 -6 -6 -1 -12 9 -16 10 -41 1 -48 -4 -3 -3 -21 1
-40 4 -19 6 -78 3 -131 -3 -84 -1 -103 18 -145 12 -27 24 -58 25 -69 5 -32 36
-105 46 -105 5 0 9 -9 9 -19 0 -44 231 -291 308 -330 23 -12 42 -18 42 -15 0
4 8 0 18 -8 9 -9 28 -19 42 -23 69 -19 168 -72 199 -107 l33 -38 -23 -9 c-13
-5 -40 -25 -59 -45 -29 -31 -35 -44 -36 -89 -2 -28 2 -68 8 -87 15 -47 117
-150 184 -185 30 -16 54 -32 54 -37 0 -4 8 -8 18 -8 22 0 77 -66 77 -93 0 -16
9 -24 35 -31 19 -6 49 -25 66 -43 17 -18 35 -29 39 -25 5 4 1 -4 -8 -18 -9
-13 -17 -36 -17 -51 0 -15 -6 -44 -14 -65 -7 -22 -13 -65 -12 -97 1 -32 -4
-63 -10 -68 -6 -5 -10 -26 -9 -47 1 -20 -5 -47 -13 -59 -8 -13 -12 -23 -9 -23
3 0 0 -19 -6 -42 -7 -24 -12 -50 -12 -58 0 -8 -2 -17 -6 -20 -7 -5 -19 -69
-21 -112 -1 -16 -6 -28 -11 -28 -5 0 -7 -6 -4 -14 3 -7 -5 -23 -19 -35 -36
-31 -53 -81 -44 -129 6 -34 4 -43 -14 -58 -19 -17 -54 -18 -431 -21 -459 -3
-514 -5 -535 -18 -8 -5 -33 -10 -57 -11 -23 -2 -53 -10 -67 -20 -24 -15 -26
-22 -26 -93 1 -44 6 -82 13 -91 14 -17 97 -64 97 -55 0 3 10 1 21 -6 20 -10
55 -17 129 -23 14 -1 32 -5 40 -8 18 -7 15 -7 200 -6 196 1 393 0 521 -3 93
-2 111 0 148 19 39 21 60 23 294 28 139 2 286 6 327 8 41 2 86 -1 100 -7 14
-5 43 -10 66 -11 22 -2 46 -6 51 -9 15 -10 103 -20 143 -18 19 2 81 5 136 8
100 4 102 4 122 -22 11 -14 22 -31 25 -38 2 -7 45 -12 133 -13 71 -1 141 -6
156 -12 19 -8 216 -11 650 -9 562 2 626 4 658 19 19 9 64 19 99 21 48 3 68 9
78 23 8 11 16 18 18 17 3 -2 30 -3 62 -3 54 0 58 2 100 47 23 26 42 52 42 58
-3 24 3 35 41 81 25 31 40 57 38 71 -2 14 11 34 40 62 23 22 42 45 42 51 0 5
25 34 56 64 30 29 56 59 57 67 2 8 6 20 10 27 5 6 5 12 0 12 -4 0 -3 4 4 8 15
10 86 152 79 159 -3 3 1 12 9 20 8 8 15 28 15 44 0 16 4 29 9 29 11 0 61 143
64 184 5 65 -21 30 -57 -76 -50 -149 -146 -338 -210 -415 -28 -34 -59 -73 -69
-88 -24 -33 -54 -51 -98 -59 l-35 -6 32 66 c23 48 30 73 25 88 -10 26 -13 26
-76 -3 -27 -12 -72 -27 -99 -32 -56 -10 -96 -33 -96 -53 0 -7 -7 -19 -15 -26
-8 -7 -15 -22 -14 -34 0 -21 1 -21 10 -1 6 15 7 11 3 -15 -4 -19 -7 -35 -8
-36 -12 -9 -256 -45 -278 -40 -16 3 -37 2 -46 -3 -49 -26 -411 -56 -372 -31 8
5 25 10 37 10 12 0 30 11 40 23 16 20 31 25 103 31 46 4 105 11 130 17 25 5
68 14 95 20 75 15 158 54 211 98 80 66 214 121 294 121 44 0 117 24 145 48 35
29 62 75 78 133 14 46 24 61 62 88 88 63 147 187 148 311 1 88 -15 130 -71
192 -21 24 -42 56 -46 71 -8 33 2 56 15 36 17 -28 9 26 -11 66 -11 22 -19 50
-20 63 0 20 -3 21 -21 12 -15 -9 -24 -8 -35 1 -11 9 -14 7 -14 -12 0 -22 -3
-21 -37 16 -19 22 -52 60 -72 84 -30 38 -57 65 -145 146 -6 6 -33 28 -61 50
-55 44 -47 29 33 -59 32 -35 51 -64 48 -73 -3 -8 -6 -44 -6 -80 0 -65 0 -66
-20 -48 -17 15 -22 16 -36 4 -16 -13 -16 -12 -4 11 12 23 12 24 -4 10 -16 -12
-20 -11 -36 10 -10 14 -16 28 -14 32 3 4 1 8 -5 8 -6 0 -17 15 -26 33 -8 18
-27 45 -41 60 -25 27 -27 27 -40 10 -12 -16 -13 -15 -8 10 6 37 -5 55 -21 33
-10 -13 -18 -14 -39 -6 -15 5 -41 12 -59 15 -18 4 -51 13 -75 21 -23 7 -50 14
-59 14 -19 0 -85 22 -93 31 -6 6 -163 36 -243 45 -31 3 -60 10 -63 15 -3 5 0
9 7 9 7 0 9 3 6 7 -4 4 -33 8 -65 10 -31 2 -58 8 -60 13 -2 6 -13 10 -25 10
-19 0 -17 3 11 22 25 15 36 18 45 9 18 -18 27 -13 27 17 0 33 -31 52 -85 52
-19 0 -37 5 -40 10 -4 6 -12 7 -18 3 -20 -12 -51 -3 -75 23 -18 19 -33 24 -72
24 -28 0 -50 4 -50 8 0 12 132 32 218 33 42 1 72 6 72 12 0 12 -336 2 -390
-12 -19 -5 -53 -12 -75 -16 -34 -6 -38 -5 -25 7 12 12 62 30 148 54 7 2 10 8
7 14 -4 6 -10 8 -15 5 -5 -3 -11 -1 -15 5 -3 5 -24 10 -45 10 -46 0 -58 14
-35 40 15 17 15 19 -2 23 -14 4 -14 5 -2 6 11 1 16 11 16 31 0 25 -4 30 -26
31 -23 0 -24 1 -6 8 11 5 23 6 28 4 4 -2 6 1 5 7 -3 10 173 109 194 110 5 0
49 18 99 41 113 51 195 66 419 80 117 6 184 15 205 25 21 11 45 13 81 8 29 -3
71 -3 94 1 38 6 40 8 26 24 -17 18 -21 41 -8 42 4 0 28 2 53 4 75 5 138 55
139 108 0 15 -4 27 -9 27 -5 0 -7 8 -4 18 2 10 -7 29 -21 45 -14 16 -26 32
-26 37 0 6 -9 15 -20 22 -29 19 -25 23 23 22 58 -1 65 3 86 45 13 28 17 56 15
111 -3 64 -6 77 -29 97 -41 39 -171 48 -246 18 -16 -6 -17 -14 -22 -115 -2
-51 12 -46 -124 -38 -55 3 -66 1 -88 -19 -22 -21 -25 -32 -25 -94 l0 -70 48
-47 c39 -40 47 -54 45 -83 -1 -18 -2 -46 -2 -60 -1 -24 -3 -25 -73 -26 -81 -2
-120 -7 -140 -19 -7 -5 -67 -10 -133 -11 -187 -2 -224 -6 -230 -21 -3 -7 -9
-10 -15 -7 -5 3 -10 1 -10 -4 0 -6 -7 -11 -15 -11 -8 0 -15 -5 -15 -11 0 -5
-4 -8 -9 -5 -5 3 -14 -1 -21 -9 -7 -8 -16 -13 -20 -10 -5 3 -11 1 -15 -4 -10
-18 -65 -40 -88 -35 -17 3 -29 -4 -46 -26 -22 -30 -22 -30 -51 -14 -25 15 -27
20 -17 43 6 14 17 33 24 41 7 9 14 37 17 63 2 25 11 54 20 63 11 10 15 28 13
50 -3 19 -1 34 3 34 4 0 8 10 9 23 0 12 2 41 5 64 3 29 0 43 -10 47 -20 8 -28
-12 -29 -71 0 -28 -4 -55 -8 -59 -4 -4 -7 -15 -7 -24 0 -21 -76 -95 -98 -95
-9 0 -18 -9 -20 -20 -4 -21 -30 -55 -43 -55 -4 0 -13 23 -20 50 -13 49 -29 67
-29 33 0 -22 -17 -50 -25 -42 -5 6 -26 79 -45 156 -5 22 -3 41 7 60 20 38 8
207 -15 222 -5 3 -12 32 -16 64 -5 45 -3 57 8 57 15 0 51 47 51 67 0 7 4 12 9
10 5 -1 10 -18 10 -37 1 -23 6 -35 15 -35 14 0 22 19 35 78 9 38 26 34 26 -7
0 -22 6 -36 16 -40 21 -8 34 1 34 24 0 10 5 22 10 25 6 3 10 17 10 31 0 21 3
24 23 19 56 -16 67 -28 88 -99 19 -62 20 -78 10 -138 -13 -81 -14 -138 -1
-158 21 -33 30 19 33 205 2 105 5 134 19 149 19 21 19 135 0 159 -6 7 -11 29
-10 49 1 19 -9 55 -22 79 -38 74 -40 78 -40 91 0 6 -8 20 -17 30 -11 12 -18
39 -19 75 -1 31 -6 58 -11 62 -10 6 -24 36 -29 58 -1 7 -16 29 -33 50 -17 21
-31 46 -31 55 0 10 -3 18 -7 18 -9 0 -100 123 -93 125 3 0 -23 29 -57 63 -35
33 -63 66 -63 71 0 13 -119 117 -131 114 -5 -2 -9 4 -9 12 0 9 -9 15 -22 14
-14 0 -17 -3 -9 -6 19 -8 51 -41 51 -54 0 -6 45 -57 99 -112 103 -105 185
-206 216 -267 10 -19 30 -51 46 -70 51 -66 80 -200 42 -200 -13 0 -8 -9 18
-37 35 -37 77 -115 98 -181 16 -52 25 -149 13 -156 -5 -3 -32 10 -58 29 -112
79 -222 151 -274 179 -76 40 -304 104 -430 121 -301 40 -374 48 -474 53 -142
6 -261 -11 -420 -60 -168 -51 -295 -116 -435 -220 -39 -30 -71 -46 -80 -43 -9
3 -12 3 -8 -1 12 -13 -15 -34 -44 -34 -36 0 -42 11 -24 46 17 33 20 70 6 79
-5 3 -13 0 -17 -6 -4 -8 -9 -7 -16 2 -5 9 -6 4 -2 -13 5 -21 2 -28 -9 -28 -9
0 -25 -14 -37 -30 -12 -17 -27 -27 -33 -24 -7 4 -9 4 -5 -1 4 -4 3 -14 -3 -22
-6 -7 -8 -13 -4 -13 4 0 2 -6 -4 -14 -7 -8 -11 -22 -9 -32 2 -9 -3 -19 -9 -21
-9 -3 -13 6 -13 26 0 31 -14 42 -23 19 -4 -10 -6 -10 -6 -1 -2 20 36 77 65 98
14 11 30 30 35 43 5 14 14 20 21 16 8 -5 9 0 5 15 -3 14 0 24 9 28 8 3 12 8
10 12 -3 4 8 23 24 41 36 42 32 50 -10 20 -34 -24 -87 -90 -135 -167 -51 -82
-83 -113 -119 -113 -28 1 -29 2 -13 14 9 7 17 18 17 24 0 6 8 16 18 21 9 6 11
11 5 11 -7 0 -13 5 -13 11 0 5 5 7 10 4 6 -3 10 1 10 9 0 9 5 16 10 16 6 0 10
7 10 16 0 8 5 12 10 9 6 -3 10 2 10 12 0 21 29 61 80 111 39 39 80 92 80 104
0 4 -13 6 -30 5 -16 -1 -30 -5 -30 -9 0 -18 -21 -6 -32 17 -8 19 -8 28 2 40 7
8 9 23 6 32 -6 15 -8 15 -16 3 -5 -8 -12 -11 -16 -7 -4 3 -1 14 6 22 11 13 11
20 0 40 -7 13 -10 31 -7 40 5 11 -1 19 -19 25 -19 8 -25 16 -21 30 3 13 0 20
-9 20 -8 0 -14 -4 -14 -10 0 -5 -5 -10 -11 -10 -7 0 -9 10 -7 25 3 14 1 25 -4
25 -5 0 -6 5 -2 11 5 8 9 7 14 -1 20 -32 161 127 167 187 4 46 26 66 169 151
44 27 98 62 120 79 98 77 170 100 429 134 88 11 178 24 200 29 l40 8 -45 1
c-42 1 -97 20 -61 21 11 0 9 4 -5 15 -12 9 -14 14 -6 15 26 0 0 20 -26 20 -15
0 -22 3 -15 8 6 4 82 7 168 6 156 -1 157 -1 183 -28 23 -23 25 -29 14 -46 -10
-17 -10 -20 4 -20 21 0 54 18 54 30 0 6 -3 9 -7 9 -23 -4 -33 3 -33 21 0 36
-47 70 -97 70 -54 0 -93 23 -86 50 3 11 1 20 -4 20 -5 0 -10 7 -10 15 0 8 3
13 5 10 3 -3 19 4 37 15 18 11 35 17 38 13 4 -3 7 -1 7 6 0 7 5 9 10 6 6 -3
10 -1 10 4 0 6 6 11 14 11 19 0 23 7 31 54 5 27 4 37 -3 32 -6 -3 -30 4 -53
16 -34 17 -58 22 -116 21 -40 -1 -75 2 -77 6 -3 4 8 15 24 25 26 15 37 16 92
5 35 -7 82 -23 106 -37 l42 -24 -9 25 c-5 14 -7 28 -4 31 4 3 -4 6 -16 6 -13
0 -35 8 -49 18 -18 12 -42 18 -70 17 -24 -1 -40 0 -35 4 12 9 16 88 5 95 -5 3
-15 -1 -22 -9 -14 -17 -46 -20 -55 -4 -4 5 -18 14 -31 19 -13 5 -24 16 -24 25
0 8 -4 15 -10 15 -5 0 -16 15 -24 33 -11 28 -11 34 2 50 9 10 29 17 49 17 33
0 40 -6 91 -69 l19 -24 -1 24 c-1 13 -14 36 -29 51 -27 27 -32 28 -130 28 -66
-1 -106 -5 -114 -13z m401 -1798 c22 -17 26 -28 26 -70 l0 -49 -51 2 c-47 1
-53 3 -71 34 -11 19 -24 34 -29 34 -15 0 -10 19 9 39 34 36 78 40 116 10z
m574 -30 c51 -24 71 -44 72 -72 0 -10 7 -41 16 -68 16 -47 15 -52 -1 -89 -9
-21 -15 -43 -11 -48 3 -5 -1 -15 -9 -22 -12 -10 -15 -9 -15 7 0 11 -20 38 -45
60 -26 25 -39 44 -32 47 7 2 4 5 -5 5 -16 1 -23 12 -19 34 0 4 -2 7 -6 8 -28
3 -54 7 -93 14 -25 5 -49 9 -55 9 -5 1 -11 22 -13 47 -3 39 0 47 21 58 64 34
134 38 195 10z m1809 -251 c11 -13 29 -40 41 -61 22 -38 22 -38 3 -75 -24 -47
-56 -76 -76 -68 -8 3 -25 27 -36 53 -18 43 -19 54 -9 100 10 45 28 72 51 73 3
0 15 -10 26 -22z m-2731 -230 c-10 -14 -16 -43 -16 -76 0 -76 38 -145 91 -166
49 -20 106 -20 142 -2 23 13 27 13 27 1 0 -8 -11 -26 -24 -42 l-24 -27 -73 21
c-41 12 -89 25 -108 28 -38 6 -71 30 -71 52 0 7 -5 13 -11 13 -5 0 -7 5 -3 11
3 6 1 15 -5 19 -14 8 -4 110 10 110 5 0 9 7 9 16 0 17 59 78 67 70 3 -3 -2
-15 -11 -28z m744 -52 c-15 -41 -12 -96 9 -141 28 -61 61 -86 122 -93 53 -7
53 -7 29 -23 -22 -14 -37 -14 -108 -5 -101 13 -117 29 -127 122 -7 72 8 119
50 152 34 27 39 24 25 -12z m-964 -597 c48 -22 131 -57 183 -76 53 -20 101
-39 106 -43 18 -14 158 -39 335 -61 191 -23 385 -29 525 -15 l90 9 -30 -32
c-32 -34 -94 -56 -132 -46 -14 3 -111 12 -216 20 -229 17 -331 34 -492 81 -66
20 -138 39 -160 44 -22 5 -59 18 -81 29 -23 11 -60 27 -82 34 -48 17 -142 75
-142 88 0 13 -2 13 96 -32z m-237 -29 c7 0 39 -16 70 -35 72 -45 216 -104 346
-143 55 -16 141 -42 190 -56 113 -34 271 -57 397 -58 54 0 111 -3 127 -7 l30
-6 -33 -40 -34 -40 -133 -6 c-216 -10 -415 18 -544 76 -16 7 -61 28 -100 45
-38 18 -98 43 -133 57 -44 18 -60 28 -50 34 14 9 5 12 -27 10 -17 -2 -18 0 -5
9 13 9 12 13 -9 30 -13 11 -33 20 -45 20 -21 0 -72 29 -52 30 4 0 -2 9 -15 20
-13 10 -19 19 -12 20 6 0 14 -5 16 -10 3 -6 4 -5 3 2 -1 7 -13 15 -26 16 -18
3 -20 6 -9 13 10 6 3 9 -22 9 -30 0 -92 29 -63 30 5 0 15 -5 21 -11 6 -6 21
-9 34 -7 18 2 23 8 21 23 -4 19 -3 19 20 -2 13 -13 30 -23 37 -23z m2309 -544
c50 -9 105 -16 121 -16 16 0 36 -3 45 -6 20 -8 21 -44 1 -44 -8 0 -15 -4 -15
-10 0 -5 9 -10 20 -10 11 0 20 5 20 10 0 13 23 13 53 -1 16 -7 23 -17 20 -28
-3 -11 5 -21 23 -30 16 -7 34 -21 42 -32 18 -26 30 -24 30 6 0 15 -8 30 -19
36 -11 5 -19 16 -19 23 0 8 -18 30 -40 50 l-40 36 32 20 c26 17 43 19 83 15
67 -8 155 -53 175 -88 8 -16 33 -37 55 -47 28 -13 34 -19 19 -20 -11 0 -24 4
-30 9 -5 6 -14 4 -21 -4 -11 -12 -7 -17 23 -31 20 -9 38 -23 41 -31 3 -7 12
-13 21 -13 15 0 15 -2 1 -15 -14 -14 -20 -14 -63 5 -60 25 -72 25 -26 0 19
-11 58 -40 85 -64 49 -44 50 -46 49 -99 -2 -62 -23 -117 -24 -60 0 34 -9 63
-19 63 -3 0 -6 -30 -7 -68 0 -79 -10 -115 -24 -92 -8 12 -10 9 -10 -11 0 -26
-21 -54 -33 -43 -3 3 -4 -8 -2 -25 2 -17 0 -31 -5 -31 -6 0 -10 10 -11 23 0
21 -1 21 -8 2 -5 -11 -4 -23 1 -26 11 -7 -6 -105 -25 -146 -10 -23 -37 -32
-37 -13 0 5 -18 0 -39 -11 -29 -15 -38 -25 -34 -37 5 -14 3 -15 -8 -4 -19 17
-59 15 -59 -3 0 -8 -3 -14 -7 -14 -5 1 -11 0 -15 -1 -11 -3 -68 -10 -98 -11
-14 0 -33 -5 -44 -11 -16 -9 -18 -7 -13 6 9 22 -11 21 -75 -5 -97 -39 -185
-59 -173 -39 4 6 -8 11 -27 12 -18 0 -37 2 -43 3 -75 14 -86 20 -144 81 -34
35 -68 64 -76 64 -9 0 -23 9 -32 19 -9 11 -20 18 -25 15 -15 -9 -62 18 -92 53
-29 34 -29 34 -12 71 31 70 95 94 191 73 19 -4 36 -1 45 7 8 7 35 27 59 45 65
48 86 80 85 135 0 75 -8 93 -60 144 -48 47 -60 52 -116 48 -16 -1 -28 3 -28 9
0 10 15 16 70 25 21 4 43 16 54 31 10 14 25 25 32 25 8 0 14 5 14 10 0 6 -19
10 -42 11 l-43 1 35 8 c18 5 39 14 45 22 15 19 82 49 95 43 3 -2 47 -10 98
-19z m-1958 -24 c0 -26 6 -42 20 -52 12 -8 20 -26 20 -42 0 -26 -3 -28 -39
-28 -22 0 -41 -4 -43 -10 -1 -5 -20 -10 -40 -12 -21 -1 -38 -6 -38 -10 0 -23
-38 -1 -96 57 -59 59 -63 67 -49 81 14 14 18 13 44 -15 30 -32 59 -39 79 -19
6 6 32 10 57 10 l45 -2 0 40 c0 33 3 40 20 40 16 0 20 -7 20 -38z m1608 -194
c-7 -13 -21 -34 -30 -47 -46 -62 12 -186 98 -207 32 -8 30 -19 -6 -34 -29 -12
-108 -8 -131 6 -6 3 -24 24 -40 46 -33 46 -38 97 -15 152 15 36 72 87 108 98
13 3 24 6 26 7 1 1 -3 -9 -10 -21z m-813 -53 c17 -16 25 -35 25 -60 l0 -35 60
0 60 0 0 -110 c0 -67 4 -110 10 -110 6 0 10 -12 10 -26 0 -16 12 -37 30 -54
35 -33 39 -69 10 -90 -11 -8 -20 -22 -20 -32 0 -10 -4 -18 -10 -18 -6 0 -10
-36 -10 -89 0 -49 -4 -91 -9 -93 -5 -2 -11 -38 -13 -80 -2 -43 -6 -78 -10 -78
-5 0 -8 -13 -8 -30 0 -16 -4 -30 -10 -30 -5 0 -10 -13 -10 -30 0 -16 -4 -30
-10 -30 -5 0 -10 -22 -10 -50 0 -27 5 -50 10 -50 6 0 10 -16 10 -35 0 -49 -36
-85 -85 -85 -19 0 -35 -4 -35 -10 0 -6 -47 -10 -120 -10 -73 0 -120 4 -120 10
0 6 -18 10 -40 10 -22 0 -40 5 -40 10 0 6 -11 10 -25 10 -29 0 -75 40 -75 65
0 8 -4 15 -10 15 -5 0 -10 17 -10 38 0 26 6 42 20 52 12 8 20 26 20 42 0 15 5
28 10 28 6 0 10 23 10 50 0 28 5 50 10 50 6 0 10 14 10 30 0 17 5 30 10 30 15
0 13 117 -2 124 -10 5 -10 7 0 12 6 3 12 19 12 35 0 16 5 29 10 29 6 0 10 14
10 30 0 17 5 30 10 30 6 0 10 23 10 50 0 28 5 50 10 50 6 0 10 28 10 65 0 62
2 68 35 100 19 19 39 35 45 35 17 0 40 26 40 44 0 9 5 16 10 16 6 0 10 7 10
16 0 9 14 29 30 44 17 15 30 34 30 42 0 7 9 20 20 28 11 8 20 20 20 28 0 11
20 41 28 42 2 0 14 -11 27 -25z m2004 -561 c6 4 11 4 11 1 0 -14 -31 -65 -44
-72 -7 -4 -25 -31 -39 -59 -17 -34 -32 -51 -43 -50 -10 0 -27 -13 -39 -30 -11
-17 -26 -29 -32 -27 -7 3 -18 -5 -25 -16 -21 -34 -30 -24 -23 22 8 47 44 95
86 116 16 7 29 17 29 22 0 16 42 58 54 53 6 -2 17 10 24 28 9 25 15 30 21 19
5 -7 14 -10 20 -7z m-648 -278 c22 -49 39 -97 39 -106 0 -10 9 -38 21 -64 28
-64 23 -99 -16 -106 -30 -5 -30 -6 -27 -62 4 -52 1 -60 -25 -84 l-28 -26 -3
56 c-3 55 -22 81 -22 31 0 -32 -26 -95 -38 -95 -13 0 -52 84 -52 110 0 11 -4
20 -9 20 -12 0 -23 -63 -15 -86 6 -17 5 -17 -15 2 -22 21 -26 47 -19 127 4 35
37 78 71 90 6 2 7 8 4 15 -6 8 -18 7 -49 -4 -22 -7 -49 -14 -59 -14 -11 0 -19
-5 -19 -12 0 -6 -3 -8 -7 -5 -3 4 -11 3 -17 -2 -6 -4 -41 -11 -77 -15 -62 -6
-68 -5 -110 25 -24 18 -53 42 -64 54 -11 13 -31 25 -45 29 l-24 5 26 -22 c28
-23 48 -57 48 -79 -1 -7 -8 0 -16 15 -18 33 -37 27 -24 -8 6 -15 6 -27 0 -30
-6 -4 -10 -23 -10 -44 0 -47 -19 -86 -42 -87 -18 -2 -58 67 -58 99 0 10 -6 14
-14 11 -8 -3 -15 -29 -19 -71 -4 -36 -9 -69 -13 -72 -8 -8 -52 49 -56 74 -2
11 0 33 4 48 6 25 5 27 -14 21 -19 -6 -17 0 13 55 19 34 39 61 46 61 20 0 55
40 49 56 -3 8 2 18 11 21 15 6 14 7 -3 13 -16 6 -14 8 13 14 22 5 33 14 37 32
4 14 10 22 15 19 5 -2 22 2 37 10 38 20 66 19 95 -3 13 -10 32 -21 42 -25 21
-8 22 -21 2 -37 -17 -14 -20 -62 -5 -90 5 -10 21 -21 35 -24 30 -8 85 18 85
39 0 17 -16 20 -25 5 -10 -16 -28 -12 -21 5 3 8 0 15 -6 15 -7 0 -7 4 1 14 9
11 8 17 -4 29 -19 19 -19 27 -1 27 8 0 17 6 19 13 3 7 6 5 6 -5 1 -21 -1 -21
83 -4 80 17 114 34 165 81 21 19 44 34 52 33 7 -2 31 -43 52 -92z m-451 -396
c81 -10 98 -15 118 -36 33 -37 28 -47 -20 -40 -24 3 -113 12 -198 20 -85 9
-156 15 -157 16 -2 0 -3 4 -3 9 0 13 43 19 69 9 18 -6 27 -3 44 17 12 13 29
22 37 20 8 -2 58 -9 110 -15z"/>
<path d="M3492 1643 c-26 -10 -91 -76 -102 -104 -21 -49 13 -184 54 -218 8 -7
12 -19 9 -27 -4 -11 6 -14 49 -14 34 0 68 -7 92 -20 32 -16 41 -17 50 -7 6 7
30 25 54 40 23 15 42 32 42 38 0 6 10 9 22 7 21 -3 22 1 20 37 -12 180 -88
276 -219 274 -32 0 -64 -3 -71 -6z m38 -47 c0 -3 -5 -17 -11 -33 -23 -60 -7
-134 38 -175 22 -20 112 -50 125 -42 21 13 5 -17 -19 -36 -21 -16 -35 -20 -58
-15 -16 4 -47 11 -68 15 -94 19 -146 132 -99 218 20 37 92 90 92 68z"/>
<path d="M3133 1320 c-29 -12 -22 -29 22 -57 24 -16 33 -28 28 -39 -5 -13 -15
-15 -57 -10 -40 4 -57 12 -81 38 -16 18 -30 40 -30 48 0 19 -41 25 -61 10 -20
-18 -18 -27 12 -42 15 -7 34 -26 43 -43 92 -172 115 -197 192 -210 20 -4 56
-1 80 5 44 12 149 82 149 100 0 5 14 29 31 54 23 34 37 46 56 46 37 0 23 24
-16 28 -19 2 -40 -3 -49 -11 -33 -30 -158 -49 -209 -33 -39 13 -36 36 7 53 37
15 57 46 28 42 -30 -4 -58 2 -58 12 0 6 9 8 23 4 17 -5 19 -4 7 4 -18 13 -86
13 -117 1z"/>
<path d="M1385 4118 c-16 -6 -41 -19 -54 -29 -13 -11 -30 -19 -37 -19 -23 0
-141 -70 -173 -102 -33 -34 -43 -65 -46 -150 -3 -108 -3 -108 -28 -108 -19 0
-26 -8 -35 -37 -6 -20 -10 -39 -8 -40 4 -4 61 26 111 57 17 11 48 29 69 41 21
11 48 30 60 41 40 37 81 56 156 73 172 38 308 62 355 64 28 1 54 6 60 12 5 5
19 9 31 9 59 0 73 27 17 32 -33 3 -38 6 -35 26 2 12 -2 22 -7 22 -7 0 -7 7 1
21 11 18 10 23 -10 39 -14 12 -20 24 -15 35 4 13 2 16 -8 13 -8 -3 -13 -10
-12 -16 1 -5 -7 -8 -17 -5 -11 3 -20 12 -20 19 0 12 -17 13 -92 9 -51 -3 -108
-8 -125 -11 -21 -4 -33 -2 -33 5 0 14 -65 13 -105 -1z"/>
<path d="M2516 4035 c4 -8 9 -13 13 -11 10 7 57 -32 49 -40 -4 -4 -30 -2 -57
3 -46 9 -50 8 -55 -11 -3 -12 -6 -33 -6 -48 0 -29 -19 -79 -34 -90 -5 -3 12
-9 37 -13 26 -4 47 -11 47 -16 0 -5 12 -9 26 -9 15 0 43 -9 63 -19 20 -10 52
-26 71 -34 52 -22 101 -45 140 -66 35 -19 58 -19 30 0 -13 8 -13 11 2 22 12
10 16 27 15 67 -2 58 -16 79 -52 80 -17 0 -17 2 -5 10 13 9 13 11 0 21 -12 9
-11 10 5 4 66 -23 73 -14 22 26 -40 32 -86 56 -200 103 -96 40 -119 44 -111
21z"/>
<path d="M4527 2464 c-4 -5 68 -109 93 -134 3 -3 16 -25 29 -50 13 -25 36 -61
51 -80 15 -19 30 -47 33 -61 4 -14 18 -42 32 -63 14 -20 25 -41 25 -47 0 -5 8
-24 17 -42 10 -18 18 -41 19 -52 7 -68 50 -199 63 -190 9 5 6 70 -5 86 -7 12
-15 48 -19 84 -2 16 -8 31 -14 33 -6 2 -9 7 -6 12 7 11 -30 92 -38 83 -4 -3
-7 7 -7 24 0 17 -7 36 -15 43 -8 7 -12 16 -9 21 2 5 -4 16 -16 26 -11 10 -20
23 -20 31 0 19 -31 76 -46 85 -8 4 -14 13 -14 20 0 7 -12 23 -25 36 -14 13
-25 32 -25 43 0 10 -4 16 -10 13 -5 -3 -10 -1 -10 5 0 6 -6 17 -12 25 -7 7
-21 22 -30 34 -18 21 -30 26 -41 15z"/>
</g>
</svg>
